<svg id="Capa_1" data-name="Capa 1" xmlns="http://www.w3.org/2000/svg" viewBox="0 0 408.27 90.51"><defs><style>.cls-1,.cls-7{fill:#CFD6E1;}.cls-2,.cls-3{fill:#CFD6E1;}.cls-2,.cls-3,.cls-4{stroke:#CFD6E1;}.cls-2,.cls-3,.cls-4,.cls-8{stroke-miterlimit:2.41;}.cls-2{stroke-width:6.21px;}.cls-3{stroke-width:6.21px;}.cls-4,.cls-8{fill:none;}.cls-4{stroke-width:5px;}.cls-5{fill:#CFD6E1;}.cls-5,.cls-6,.cls-7{fill-rule:evenodd;}.cls-6{fill:#fff;}.cls-8{stroke:#CFD6E1;}</style></defs><path class="cls-1" d="M352.73,239.62,339.55,194.7h8.06l9.33,33.24,9-33.24h7.91l-13.21,44.92Z" transform="translate(-221.76 -171.75)"/><path class="cls-1" d="M377.39,239.62V194.7h7.42v44.92Z" transform="translate(-221.76 -171.75)"/><path class="cls-1" d="M391.92,194.7h14.75q6,0,8.5,1.1a9.48,9.48,0,0,1,4.14,3.89,12.69,12.69,0,0,1,.24,12.18,9.52,9.52,0,0,1-3.76,3.88,9.9,9.9,0,0,1,5.13,4,12.27,12.27,0,0,1,1.85,6.86,14.15,14.15,0,0,1-2.36,8.29,9.64,9.64,0,0,1-5.58,4.18q-2.24.56-10.38.56H391.92Zm7.41,7.47v10.39h4.9q4.41,0,5.46-.15a4.69,4.69,0,0,0,3-1.61,5.44,5.44,0,0,0,1.07-3.54,5.51,5.51,0,0,0-.87-3.23,3.66,3.66,0,0,0-2.12-1.55,45.32,45.32,0,0,0-7.12-.31Zm0,17.87v12h6.91a21.34,21.34,0,0,0,5.83-.48,4.32,4.32,0,0,0,2.17-1.86,6.55,6.55,0,0,0,.87-3.53,6.41,6.41,0,0,0-.94-3.62,4.78,4.78,0,0,0-2.48-2,24.08,24.08,0,0,0-6.34-.53Z" transform="translate(-221.76 -171.75)"/><path class="cls-1" d="M429.08,239.62V194.7h15.66q6,0,8.58,1.21a9.56,9.56,0,0,1,4.23,4.2,14.56,14.56,0,0,1,1.65,7.15,13.35,13.35,0,0,1-2.53,8.49,11.24,11.24,0,0,1-7.18,4,18.74,18.74,0,0,1,3.95,3.76,53,53,0,0,1,4.26,7.3l4.47,8.77H453.3l-5.38-9.78a64,64,0,0,0-3.95-6.63,5.85,5.85,0,0,0-2.2-1.84,10,10,0,0,0-3.74-.51H436.5v18.76Zm7.42-25.93H442a27.53,27.53,0,0,0,6.44-.44,4.05,4.05,0,0,0,2.23-1.79,6.65,6.65,0,0,0,.86-3.59,6.17,6.17,0,0,0-.86-3.44,4.35,4.35,0,0,0-2.33-1.8,29.94,29.94,0,0,0-6-.33H436.5Z" transform="translate(-221.76 -171.75)"/><path class="cls-1" d="M464.69,217.43q0-8,2.37-13.22a17.8,17.8,0,0,1,6.21-7.73,16.34,16.34,0,0,1,9.28-2.55,15.91,15.91,0,0,1,12.88,6q5,6,5,17.19t-5.27,17.62q-4.62,5.59-12.56,5.6T470,234.84Q464.68,228.5,464.69,217.43Zm7.66-.3q0,7.76,2.94,11.62a8.87,8.87,0,0,0,7.31,3.88,8.77,8.77,0,0,0,7.27-3.84q2.88-3.85,2.88-11.82c0-5.2-.93-9.06-2.81-11.55a8.77,8.77,0,0,0-7.34-3.74,8.88,8.88,0,0,0-7.4,3.77Q472.35,209.23,472.35,217.13Z" transform="translate(-221.76 -171.75)"/><path class="cls-1" d="M506.46,239.62V194.7h11.12l6.69,30.67,6.65-30.67h11.17v44.92h-6.92V204.23l-7.35,35.39h-7.15l-7.29-35.39v35.39Z" transform="translate(-221.76 -171.75)"/><path class="cls-1" d="M583,239.62h-8.06l-3.23-10.18H556.94l-3.05,10.18H546l14.34-44.92h7.88Zm-13.68-17.77-5.09-16.67-5,16.67Z" transform="translate(-221.76 -171.75)"/><path class="cls-1" d="M616.52,233.92a24.15,24.15,0,0,0,6,3.8l-2.73,6.4a16.58,16.58,0,0,1-3.25-1.65c-.24-.15-1.91-1.49-5-4a17.51,17.51,0,0,1-8.34,1.93,15.87,15.87,0,0,1-12.88-6q-4.92-6-4.92-17.26t4.95-17.28a16.08,16.08,0,0,1,13-5.95,15.91,15.91,0,0,1,12.87,6q4.92,6,4.92,17.27a35.6,35.6,0,0,1-1.1,9.43A23.4,23.4,0,0,1,616.52,233.92Zm-6-5.12c1.92-2.65,2.88-6.53,2.88-11.61q0-7.91-2.86-11.71a9,9,0,0,0-14.68,0Q593,209.29,593,217.16T595.89,229a8.59,8.59,0,0,0,7.12,3.85,7.33,7.33,0,0,0,3-.65,21.25,21.25,0,0,0-4.59-2.82l2.08-5.18A24.48,24.48,0,0,1,610.55,228.8Z" transform="translate(-221.76 -171.75)"/><line class="cls-2" x1="117.51" y1="3.14" x2="408.24" y2="3.14"/><line class="cls-3" x1="117.51" y1="87.4" x2="408.27" y2="87.4"/><path class="cls-4" d="M317.42,174.25a6,6,0,0,1,5.95,6v73.52a6,6,0,0,1-5.95,6h-87.2a6,6,0,0,1-6-6V180.25a6,6,0,0,1,6-6Z" transform="translate(-221.76 -171.75)"/><path class="cls-5" d="M314.76,179.43a2.62,2.62,0,0,1,2.62,2.63V252a2.62,2.62,0,0,1-2.62,2.63H232.88a2.62,2.62,0,0,1-2.62-2.63v-69.9a2.62,2.62,0,0,1,2.62-2.63Z" transform="translate(-221.76 -171.75)"/><polygon class="cls-6" points="11.98 13.12 39.59 77.39 64.33 77.39 92.13 13.12 66.38 13.12 52.1 46.44 37.31 13.12 11.98 13.12 11.98 13.12"/><polygon class="cls-7" points="40.54 75.86 14.27 14.66 18.77 14.66 44.95 75.86 40.54 75.86 40.54 75.86"/><polygon class="cls-7" points="46.31 75.86 20.05 14.66 24.54 14.66 50.73 75.86 46.31 75.86 46.31 75.86"/><polygon class="cls-7" points="52.19 75.86 25.92 14.66 30.41 14.66 56.6 75.86 52.19 75.86 52.19 75.86"/><polygon class="cls-7" points="57.96 75.86 31.69 14.66 36.19 14.66 62.38 75.86 57.96 75.86 57.96 75.86"/><polygon class="cls-7" points="63.28 75.94 89.55 14.73 85.05 14.74 58.87 75.94 63.28 75.94 63.28 75.94"/><polygon class="cls-7" points="59.56 71.14 83.77 14.73 79.28 14.74 57.29 65.87 59.56 71.14 59.56 71.14"/><polygon class="cls-7" points="56.58 64.37 77.9 14.73 73.41 14.74 54.41 59.2 56.58 64.37 56.58 64.37"/><polygon class="cls-7" points="53.74 57.6 72.13 14.73 67.63 14.74 51.57 52.36 53.74 57.6 53.74 57.6"/><path class="cls-8" d="M623.48,187.43a5.77,5.77,0,1,1-5.77,5.77A5.77,5.77,0,0,1,623.48,187.43Z" transform="translate(-221.76 -171.75)"/><path class="cls-1" d="M621,196.4v-6.66h2.84a4.86,4.86,0,0,1,1.55.18,1.5,1.5,0,0,1,.77.64,1.84,1.84,0,0,1,.29,1.05,1.76,1.76,0,0,1-.44,1.24,2.1,2.1,0,0,1-1.32.61,3.12,3.12,0,0,1,.73.56,8,8,0,0,1,.76,1.08l.81,1.3h-1.6l-1-1.45a8.58,8.58,0,0,0-.71-1,1,1,0,0,0-.4-.27,2.19,2.19,0,0,0-.68-.08h-.27v2.78Zm1.35-3.84h1a5.44,5.44,0,0,0,1.21-.08.74.74,0,0,0,.38-.29.87.87,0,0,0,.14-.5.8.8,0,0,0-.18-.54.83.83,0,0,0-.51-.26c-.11,0-.44,0-1,0H622.3Z" transform="translate(-221.76 -171.75)"/></svg>