<svg id="Capa_1" data-name="Capa 1" xmlns="http://www.w3.org/2000/svg" viewBox="0 0 104.11 90.51"><defs><style>.cls-1{fill:none;stroke:#009640;stroke-miterlimit:2.41;stroke-width:5px;}.cls-2{fill:#009640;}.cls-2,.cls-3,.cls-4{fill-rule:evenodd;}.cls-3{fill:#fff;}.cls-4{fill:#e30613;}</style></defs><path class="cls-1" d="M317.42,174.25a6,6,0,0,1,5.95,6v73.52a6,6,0,0,1-5.95,6h-87.2a6,6,0,0,1-6-6V180.25a6,6,0,0,1,6-6Z" transform="translate(-221.76 -171.75)"/><path class="cls-2" d="M314.76,179.43a2.62,2.62,0,0,1,2.62,2.63V252a2.62,2.62,0,0,1-2.62,2.63H232.88a2.62,2.62,0,0,1-2.62-2.63v-69.9a2.62,2.62,0,0,1,2.62-2.63Z" transform="translate(-221.76 -171.75)"/><polygon class="cls-3" points="11.98 13.12 39.59 77.39 64.33 77.39 92.13 13.12 66.38 13.12 52.1 46.44 37.31 13.12 11.98 13.12 11.98 13.12"/><polygon class="cls-4" points="40.54 75.86 14.27 14.66 18.77 14.66 44.95 75.86 40.54 75.86 40.54 75.86"/><polygon class="cls-4" points="46.31 75.86 20.05 14.66 24.54 14.66 50.73 75.86 46.31 75.86 46.31 75.86"/><polygon class="cls-4" points="52.19 75.86 25.92 14.66 30.41 14.66 56.6 75.86 52.19 75.86 52.19 75.86"/><polygon class="cls-4" points="57.96 75.86 31.69 14.66 36.19 14.66 62.38 75.86 57.96 75.86 57.96 75.86"/><polygon class="cls-4" points="63.28 75.94 89.55 14.73 85.05 14.74 58.87 75.94 63.28 75.94 63.28 75.94"/><polygon class="cls-4" points="59.56 71.14 83.77 14.73 79.28 14.74 57.29 65.87 59.56 71.14 59.56 71.14"/><polygon class="cls-4" points="56.58 64.37 77.9 14.73 73.41 14.74 54.41 59.2 56.58 64.37 56.58 64.37"/><polygon class="cls-4" points="53.74 57.6 72.13 14.73 67.63 14.74 51.57 52.36 53.74 57.6 53.74 57.6"/></svg>