<!-- 
<svg width="800px" height="800px" fill="#231f20" viewBox="0 0 48 48" xmlns="http://www.w3.org/2000/svg">
  <title>service-setting-solid</title>
  <g id="Layer_2" data-name="Layer 2">
    <g id="invisible_box" data-name="invisible box">
      <rect width="48" height="48" fill="none"/>
      <rect width="48" height="48" fill="none"/>
      <rect width="48" height="48" fill="none"/>
    </g>
    <g id="icons_Q2" data-name="icons Q2">
      <path d="M28.7,18.8l-1.8,2.9,1.4,1.4,2.9-1.8,1,.4L33,25h2l.8-3.3,1-.4,2.9,1.8,1.4-1.4-1.8-2.9a4.2,4.2,0,0,0,.4-1L43,17V15l-3.3-.8a4.2,4.2,0,0,0-.4-1l1.8-2.9L39.7,8.9l-2.9,1.8-1-.4L35,7H33l-.8,3.3-1,.4L28.3,8.9l-1.4,1.4,1.8,2.9a4.2,4.2,0,0,0-.4,1L25,15v2l3.3.8A4.2,4.2,0,0,0,28.7,18.8ZM34,14a2,2,0,1,1-2,2A2,2,0,0,1,34,14Z"/>
      <path d="M42.2,28.7a5.2,5.2,0,0,0-4-1.1l-9.9,1.8a4.5,4.5,0,0,0-1.4-3.3L19.8,19H5a2,2,0,0,0-2,2v9a2,2,0,0,0,2,2H8.3l11.2,9.1,20.4-3.7a5,5,0,0,0,2.3-8.7Zm-3,4.8L20.5,36.9,10,28.2V23h8.2l5.9,5.9a.8.8,0,0,1-1.2,1.2l-3.5-3.5a2,2,0,0,0-2.8,2.8l3.5,3.5a4.5,4.5,0,0,0,3.4,1.4,5.7,5.7,0,0,0,1.8-.3h0l13.6-2.4a1.1,1.1,0,0,1,.8.2.9.9,0,0,1,.3.7A1,1,0,0,1,39.2,33.5Z"/>
    </g>
  </g>
</svg> -->


<svg version="1.1" id="Icons" xmlns="http://www.w3.org/2000/svg" xmlns:xlink="http://www.w3.org/1999/xlink" viewBox="0 0 32 32" xml:space="preserve" fill="#000000"><g id="SVGRepo_bgCarrier" stroke-width="0"></g><g id="SVGRepo_tracerCarrier" stroke-linecap="round" stroke-linejoin="round"></g><g id="SVGRepo_iconCarrier"> <style type="text/css"> .st0{fill:none;stroke:#231f20;stroke-width:2;stroke-linecap:round;stroke-linejoin:round;stroke-miterlimit:10;} .st1{fill:none;stroke:#231f20;stroke-width:2;stroke-linejoin:round;stroke-miterlimit:10;} .st2{fill:none;stroke:#231f20;stroke-width:2;stroke-linecap:round;stroke-miterlimit:10;} </style> <path class="st0" d="M3,24l2.6-4.2c1.5-2.3,4-3.8,6.8-3.8H19v0c0,2.2-1.8,4-4,4h-2"></path> <path class="st0" d="M16,20h7l1.2-1.6c1.1-1.5,2.9-2.4,4.8-2.4h0l-2.7,4.8c-1.4,2.6-4.2,4.2-7.1,4.2h0c-4.7,0-9.3,1.4-13.2,4l0,0"></path> <path class="st0" d="M24.1,12.9c0.1-0.6,0.2-1.3,0.2-1.9c0-0.7-0.1-1.3-0.2-1.9c-1,0.1-2-0.3-2.5-1.3c-0.5-0.9-0.4-2,0.2-2.8 c-0.9-0.9-2.1-1.6-3.4-2C18,3.9,17.1,4.6,16,4.6S14,3.9,13.6,3c-1.3,0.4-2.4,1.1-3.4,2c0.6,0.8,0.7,1.9,0.2,2.8 C9.9,8.7,8.9,9.2,7.9,9.1C7.7,9.7,7.7,10.3,7.7,11c0,0.7,0.1,1.3,0.2,1.9"></path> <path class="st0" d="M18.2,13c0.5-0.5,0.8-1.2,0.8-2c0-1.7-1.3-3-3-3s-3,1.3-3,3c0,0.8,0.3,1.5,0.8,2"></path> </g></svg>